<svg width="1920" height="240" viewBox="0 0 1920 240" xmlns="http://www.w3.org/2000/svg"><rect width="1920" height="240" fill="#041941"/><path d="M 0,240 C 0,240 0,60 0,60 C 121.41626794258374,62.25837320574163 242.8325358851675,64.51674641148325 360,67 C 477.1674641148325,69.48325358851675 590.0861244019139,72.1913875598086 741,70 C 891.9138755980861,67.8086124401914 1080.822966507177,60.717703349282296 1221,56 C 1361.177033492823,51.282296650717704 1452.622009569378,48.9377990430622 1561,50 C 1669.377990430622,51.0622009569378 1794.688995215311,55.5311004784689 1920,60 C 1920,60 1920,240 1920,240 Z" fill="#0d57a2" opacity="0.15"/><path d="M 0,240 C 0,240 0,120 0,120 C 127.19617224880386,121.69377990430621 254.39234449760772,123.38755980861244 386,124 C 517.6076555023923,124.61244019138756 653.6267942583733,124.14354066985646 795,123 C 936.3732057416267,121.85645933014354 1083.1004784688996,120.03827751196172 1213,117 C 1342.8995215311004,113.96172248803828 1455.9712918660289,109.70334928229664 1571,110 C 1686.0287081339711,110.29665071770336 1803.0143540669856,115.14832535885168 1920,120 C 1920,120 1920,240 1920,240 Z" fill="#0d57a2" opacity="0.3"/><path d="M 0,240 C 0,240 0,180 0,180 C 139.60765550239233,176.61244019138758 279.21531100478467,173.22488038277513 391,177 C 502.78468899521533,180.77511961722487 586.7464114832537,191.71291866028707 731,199 C 875.2535885167463,206.28708133971293 1079.7990430622008,209.92344497607655 1203,202 C 1326.2009569377992,194.07655502392345 1368.0574162679427,174.5933014354067 1474,169 C 1579.9425837320573,163.4066985645933 1749.9712918660287,171.70334928229664 1920,180 C 1920,180 1920,240 1920,240 Z" fill="#0d57a2" opacity="0.44999999999999996"/></svg>