<svg width="1920" height="240" viewBox="0 0 1920 240" xmlns="http://www.w3.org/2000/svg"><rect width="1920" height="240" fill="#5e81f4"/><path d="M 0,240 C 0,240 0,80 0,80 C 127.10047846889955,81.01435406698565 254.2009569377991,82.02870813397128 380,80 C 505.7990430622009,77.97129186602872 630.2966507177032,72.89952153110048 778,69 C 925.7033492822968,65.10047846889952 1096.6124401913876,62.373205741626805 1208,61 C 1319.3875598086124,59.626794258373195 1371.2535885167463,59.60765550239233 1480,63 C 1588.7464114832537,66.39234449760767 1754.3732057416269,73.19617224880383 1920,80 C 1920,80 1920,240 1920,240 Z" fill="#000000" opacity="0.19999999999999998"/><path d="M 0,240 C 0,240 0,160 0,160 C 129.1866028708134,153.99043062200957 258.3732057416268,147.98086124401914 363,142 C 467.6267942583732,136.01913875598086 547.6937799043062,130.06698564593302 698,134 C 848.3062200956938,137.93301435406698 1068.8516746411483,151.75119617224883 1220,158 C 1371.1483253588517,164.24880382775117 1452.8995215311006,162.9282296650718 1558,162 C 1663.1004784688994,161.0717703349282 1791.5502392344497,160.5358851674641 1920,160 C 1920,160 1920,240 1920,240 Z" fill="#000000" opacity="0.39999999999999997"/></svg>